#N canvas 357 186 523 494 10;
#X declare -lib mrpeach;
#X declare -lib moocow;
#X obj 70 55 import mrpeach;
#X obj 70 28 loadbang;
#X obj 413 18 inlet;
#X obj 138 327 *~ 4;
#X obj 211 335 line 1 100;
#X floatatom 204 371 5 0 0 0 - - -;
#X obj 417 39 unpack s s f;
#X msg 228 312 \$1 50;
#X obj 75 99 iter;
#X obj 77 122 sel 58;
#X obj 414 89 str to_list;
#X obj 166 140 zl group 12;
#X obj 74 173 unpack f f f f f f f f f f f f;
#X obj 123 452 dac~ 1 2;
#X obj 442 73 s ssid;
#X obj 14 226 mfn;
#X obj 43 223 mfn;
#X obj 71 228 mfn;
#X obj 100 225 mfn;
#X obj 125 227 mfn;
#X obj 181 225 mfn;
#X obj 209 230 mfn;
#X obj 238 227 mfn;
#X obj 152 228 mfn;
#X obj 263 229 mfn;
#X obj 292 228 mfn;
#X obj 317 230 mfn;
#X obj 245 20 schange;
#X obj 248 74 pipe 1000;
#X obj 322 59 bng 15 250 50 0 empty empty empty 17 7 0 10 -262144 -1
-1;
#X msg 343 12 symbol none;
#X obj 353 66 sel none;
#X obj 368 90 bng 15 250 50 0 empty empty empty 17 7 0 10 -262144 -1
-1;
#X obj 295 40 bng 15 250 50 0 empty empty empty 17 7 0 10 -262144 -1
-1;
#X obj 432 252 pack s s;
#X obj 430 225 l2s;
#X obj 357 214 string2any;
#X obj 359 268 zl group 12;
#X obj 444 310 s ssid;
#X obj 165 43 import moocow;
#X obj 289 150 maxlib/scale -95 -34 0.01 1.4;
#X connect 1 0 0 0;
#X connect 1 0 39 0;
#X connect 2 0 6 0;
#X connect 3 0 13 0;
#X connect 3 0 13 1;
#X connect 4 0 5 0;
#X connect 5 0 3 1;
#X connect 6 0 27 0;
#X connect 6 1 14 0;
#X connect 6 1 34 1;
#X connect 6 2 40 0;
#X connect 7 0 4 0;
#X connect 8 0 9 0;
#X connect 9 1 11 0;
#X connect 9 1 36 0;
#X connect 10 0 8 0;
#X connect 11 0 12 0;
#X connect 12 0 15 0;
#X connect 12 1 16 0;
#X connect 12 2 17 0;
#X connect 12 3 18 0;
#X connect 12 4 19 0;
#X connect 12 5 23 0;
#X connect 12 6 20 0;
#X connect 12 7 21 0;
#X connect 12 8 22 0;
#X connect 12 9 24 0;
#X connect 12 10 25 0;
#X connect 12 11 26 0;
#X connect 15 0 3 0;
#X connect 16 0 3 0;
#X connect 17 0 3 0;
#X connect 18 0 3 0;
#X connect 19 0 3 0;
#X connect 20 0 3 0;
#X connect 21 0 3 0;
#X connect 22 0 3 0;
#X connect 23 0 3 0;
#X connect 24 0 3 0;
#X connect 25 0 3 0;
#X connect 26 0 3 0;
#X connect 27 0 29 0;
#X connect 27 0 31 0;
#X connect 27 1 33 0;
#X connect 28 0 30 0;
#X connect 29 0 28 0;
#X connect 30 0 27 0;
#X connect 31 0 32 0;
#X connect 31 1 10 0;
#X connect 35 0 34 0;
#X connect 36 0 37 0;
#X connect 37 0 35 0;
#X connect 40 0 7 0;
