#N canvas 425 112 420 637 10;
#X obj 152 8 inlet;
#X obj 96 109 zl slice 1;
#X obj 154 140 zl ecils 1;
#X floatatom 256 272 5 0 0 0 - - -;
#X symbolatom 77 271 10 0 0 0 - - -;
#X symbolatom 153 288 10 0 0 0 - - -;
#X obj 155 183 tosymbol;
#X obj 86 239 tosymbol;
#X obj 83 373 pack s s f;
#X obj 84 512 outlet;
#X msg 94 41 list Apple_cd:17:54 _The Cloud -56;
#X obj 284 466 s dbm;
#X obj 143 78 t b a b;
#X obj 132 443 spigot;
#X msg 173 382 0;
#X obj 144 501 print probe request detected from device;
#X obj 202 479 list trim;
#X obj 201 346 moses -55;
#X msg 191 250 symbol <no_SSIDs>;
#X connect 0 0 12 0;
#X connect 1 0 7 0;
#X connect 1 1 2 0;
#X connect 2 0 6 0;
#X connect 2 1 3 0;
#X connect 3 0 8 2;
#X connect 3 0 11 0;
#X connect 3 0 17 0;
#X connect 4 0 8 0;
#X connect 5 0 8 1;
#X connect 6 0 5 0;
#X connect 7 0 4 0;
#X connect 8 0 13 0;
#X connect 10 0 1 0;
#X connect 12 1 1 0;
#X connect 12 2 18 0;
#X connect 13 0 9 0;
#X connect 13 0 16 0;
#X connect 14 0 13 1;
#X connect 16 0 15 0;
#X connect 17 0 14 0;
#X connect 17 1 13 1;
#X connect 18 0 8 1;
