#N canvas 205 72 420 515 10;
#X obj 152 8 inlet;
#X obj 96 109 zl slice 1;
#X obj 154 140 zl ecils 1;
#X floatatom 256 272 5 0 0 0 - - -;
#X symbolatom 77 271 10 0 0 0 - - -;
#X symbolatom 153 288 10 0 0 0 - - -;
#X obj 155 183 tosymbol;
#X obj 86 239 tosymbol;
#X obj 96 369 pack s s f;
#X obj 72 425 outlet;
#X obj 307 363 stopwatch;
#X obj 306 388 bng 15 250 50 0 empty empty empty 17 7 0 10 -262144
-1 -1;
#X symbolatom 267 442 10 0 0 0 - - -;
#X msg 265 413 set \$1;
#X obj 267 471 outlet;
#X msg 191 249 symbol .;
#X obj 143 78 t b a b;
#X msg 93 41 symbol 48:5a:3f:cd:17:54 _The Cloud -56;
#X connect 0 0 16 0;
#X connect 1 0 7 0;
#X connect 1 1 2 0;
#X connect 2 0 6 0;
#X connect 2 1 3 0;
#X connect 3 0 8 2;
#X connect 4 0 8 0;
#X connect 4 0 10 0;
#X connect 4 0 13 0;
#X connect 5 0 8 1;
#X connect 6 0 5 0;
#X connect 7 0 4 0;
#X connect 8 0 9 0;
#X connect 10 0 11 0;
#X connect 11 0 12 0;
#X connect 12 0 14 0;
#X connect 13 0 12 0;
#X connect 15 0 8 1;
#X connect 16 1 1 0;
#X connect 16 2 15 0;
#X connect 17 0 16 0;
