#N canvas 127 190 1118 627 10;
#X declare -lib mrpeach;
#X declare -lib moocow;
#X declare -lib mrpeach;
#X declare -lib moocow;
#X declare -lib mrpeach;
#X declare -lib moocow;
#X declare -lib mrpeach;
#X declare -lib moocow;
#X declare -lib mrpeach;
#X declare -lib moocow;
#X declare -lib mrpeach;
#X declare -lib moocow;
#X declare -lib mrpeach;
#X declare -lib moocow;
#X declare -lib mrpeach;
#X declare -lib moocow;
#X declare -lib mrpeach;
#X declare -lib moocow;
#X declare -lib mrpeach;
#X declare -lib moocow;
#X declare -lib mrpeach;
#X declare -lib moocow;
#X declare -lib mrpeach;
#X declare -lib moocow;
#X declare -lib mrpeach;
#X declare -lib moocow;
#X declare -lib mrpeach;
#X declare -lib moocow;
#X declare -lib mrpeach;
#X declare -lib moocow;
#X declare -lib mrpeach;
#X declare -lib moocow;
#X declare -lib mrpeach;
#X declare -lib moocow;
#X declare -lib mrpeach;
#X declare -lib moocow;
#X declare -lib mrpeach;
#X declare -lib moocow;
#X declare -lib mrpeach;
#X declare -lib moocow;
#X declare -lib mrpeach;
#X declare -lib moocow;
#X declare -lib mrpeach;
#X declare -lib moocow;
#X declare -lib mrpeach;
#X declare -lib moocow;
#X declare -lib mrpeach;
#X declare -lib moocow;
#X declare -lib mrpeach;
#X declare -lib moocow;
#X declare -lib mrpeach;
#X declare -lib moocow;
#X declare -lib mrpeach;
#X declare -lib moocow;
#X declare -lib mrpeach;
#X declare -lib moocow;
#X declare -lib mrpeach;
#X declare -lib moocow;
#X declare -lib mrpeach;
#X declare -lib moocow;
#X declare -lib mrpeach;
#X declare -lib moocow;
#X declare -lib mrpeach;
#X declare -lib moocow;
#X declare -lib mrpeach;
#X declare -lib moocow;
#X declare -lib mrpeach;
#X declare -lib moocow;
#X declare -lib mrpeach;
#X declare -lib moocow;
#X declare -lib mrpeach;
#X declare -lib moocow;
#X declare -lib mrpeach;
#X declare -lib moocow;
#X declare -lib mrpeach;
#X declare -lib moocow;
#X declare -lib mrpeach;
#X declare -lib moocow;
#X declare -lib mrpeach;
#X declare -lib moocow;
#X declare -lib mrpeach;
#X declare -lib moocow;
#X declare -lib mrpeach;
#X declare -lib moocow;
#X declare -lib mrpeach;
#X declare -lib moocow;
#X declare -lib mrpeach;
#X declare -lib moocow;
#X declare -lib mrpeach;
#X declare -lib moocow;
#X declare -lib mrpeach;
#X declare -lib moocow;
#X declare -lib mrpeach;
#X declare -lib moocow;
#X declare -lib mrpeach;
#X declare -lib moocow;
#X declare -lib mrpeach;
#X declare -lib moocow;
#X declare -lib mrpeach;
#X declare -lib moocow;
#X declare -lib mrpeach;
#X declare -lib moocow;
#X declare -lib mrpeach;
#X declare -lib moocow;
#X declare -lib mrpeach;
#X declare -lib moocow;
#X declare -lib mrpeach;
#X declare -lib moocow;
#X declare -lib mrpeach;
#X declare -lib moocow;
#X declare -lib mrpeach;
#X declare -lib moocow;
#X declare -lib mrpeach;
#X declare -lib moocow;
#X declare -lib mrpeach;
#X declare -lib moocow;
#X declare -lib mrpeach;
#X declare -lib moocow;
#X declare -lib mrpeach;
#X declare -lib moocow;
#X declare -lib mrpeach;
#X declare -lib moocow;
#X obj 398 50 loadbang;
#X obj 523 116 dsp;
#X obj 309 106 import mrpeach;
#X obj 308 79 import moocow;
#X obj 34 -10 udpreceive 9997;
#X obj 401 131 Speakerinst;
#X obj 92 170 string2any;
#X msg 489 103 1;
#X obj 454 72 delay 300;
#X obj 56 24 list append 47;
#X obj 70 53 list trim;
#X obj 94 83 mrpeach/str csplit 47;
#X obj 204 109 str to_list;
#X obj 146 136 mrpeach/str csplit 47;
#X obj 76 144 str to_list;
#X obj 142 194 route 1 2 3 4 5 6 7 8 9 10 11 12 13 14 15 16 17 18 19
20 21 22 23 24 25 26 27 28 29 30;
#X obj 509 259 inparse;
#X obj 509 285 voices;
#X obj 416 259 inparse;
#X obj 321 258 inparse;
#X obj 223 258 inparse;
#X obj 130 258 inparse;
#X obj 45 253 inparse;
#X obj 43 312 inparse;
#X obj 138 313 inparse;
#X obj 231 313 inparse;
#X obj 329 313 inparse;
#X obj 424 314 inparse;
#X obj 517 314 inparse;
#X obj 508 367 inparse;
#X obj 431 369 inparse;
#X obj 336 368 inparse;
#X obj 238 368 inparse;
#X obj 145 368 inparse;
#X obj 50 367 inparse;
#X obj 46 419 inparse;
#X obj 141 420 inparse;
#X obj 234 420 inparse;
#X obj 332 420 inparse;
#X obj 427 421 inparse;
#X obj 504 419 inparse;
#X obj 495 475 inparse;
#X obj 418 477 inparse;
#X obj 323 476 inparse;
#X obj 225 476 inparse;
#X obj 132 476 inparse;
#X obj 37 475 inparse;
#X obj 412 284 voices;
#X obj 324 286 voices;
#X obj 221 279 voices;
#X obj 132 280 voices;
#X obj 45 277 voices;
#X obj 43 336 voices;
#X obj 140 336 voices;
#X obj 233 336 voices;
#X obj 326 341 voices;
#X obj 422 336 voices;
#X obj 511 339 voices;
#X obj 507 392 voices;
#X obj 429 392 voices;
#X obj 331 389 voices;
#X obj 237 392 voices;
#X obj 149 394 voices;
#X obj 55 390 voices;
#X obj 51 442 voices;
#X obj 137 442 voices;
#X obj 234 442 voices;
#X obj 331 444 voices;
#X obj 425 444 voices;
#X obj 503 444 voices;
#X obj 494 500 voices;
#X obj 416 500 voices;
#X obj 322 500 voices;
#X obj 225 498 voices;
#X obj 128 498 voices;
#X obj 42 498 voices;
#X obj 1048 267 inparse;
#X obj 1048 293 voices;
#X obj 955 267 inparse;
#X obj 860 266 inparse;
#X obj 762 266 inparse;
#X obj 669 266 inparse;
#X obj 584 261 inparse;
#X obj 582 320 inparse;
#X obj 677 321 inparse;
#X obj 770 321 inparse;
#X obj 868 321 inparse;
#X obj 963 322 inparse;
#X obj 1056 322 inparse;
#X obj 1047 375 inparse;
#X obj 970 377 inparse;
#X obj 875 376 inparse;
#X obj 777 376 inparse;
#X obj 684 376 inparse;
#X obj 589 375 inparse;
#X obj 585 427 inparse;
#X obj 680 428 inparse;
#X obj 773 428 inparse;
#X obj 871 428 inparse;
#X obj 966 429 inparse;
#X obj 1043 427 inparse;
#X obj 1034 483 inparse;
#X obj 957 485 inparse;
#X obj 862 484 inparse;
#X obj 764 484 inparse;
#X obj 671 484 inparse;
#X obj 576 483 inparse;
#X obj 951 292 voices;
#X obj 863 294 voices;
#X obj 760 287 voices;
#X obj 671 288 voices;
#X obj 584 285 voices;
#X obj 582 344 voices;
#X obj 679 344 voices;
#X obj 772 344 voices;
#X obj 865 349 voices;
#X obj 961 344 voices;
#X obj 1050 347 voices;
#X obj 1046 400 voices;
#X obj 968 400 voices;
#X obj 870 397 voices;
#X obj 776 400 voices;
#X obj 688 402 voices;
#X obj 594 398 voices;
#X obj 590 450 voices;
#X obj 676 450 voices;
#X obj 773 450 voices;
#X obj 870 452 voices;
#X obj 964 452 voices;
#X obj 1042 452 voices;
#X obj 1033 508 voices;
#X obj 955 508 voices;
#X obj 861 508 voices;
#X obj 764 506 voices;
#X obj 667 506 voices;
#X obj 581 506 voices;
#X obj 681 202 route 31 32 33 34 35 36 37 38 39 40 41 42 43 44 45 46
47 48 49 50 51 52 53 54 55 56 57 58 59 70;
#X connect 0 0 2 0;
#X connect 0 0 3 0;
#X connect 0 0 8 0;
#X connect 4 0 9 0;
#X connect 6 0 15 0;
#X connect 7 0 1 0;
#X connect 8 0 7 0;
#X connect 9 0 10 0;
#X connect 10 0 11 0;
#X connect 11 1 12 0;
#X connect 12 0 13 0;
#X connect 13 0 14 0;
#X connect 14 0 6 0;
#X connect 15 0 22 0;
#X connect 15 1 21 0;
#X connect 15 2 20 0;
#X connect 15 3 19 0;
#X connect 15 4 18 0;
#X connect 15 5 16 0;
#X connect 15 6 23 0;
#X connect 15 7 24 0;
#X connect 15 8 25 0;
#X connect 15 9 26 0;
#X connect 15 10 27 0;
#X connect 15 11 28 0;
#X connect 15 12 34 0;
#X connect 15 13 33 0;
#X connect 15 14 32 0;
#X connect 15 15 31 0;
#X connect 15 16 30 0;
#X connect 15 17 29 0;
#X connect 15 18 35 0;
#X connect 15 19 36 0;
#X connect 15 20 37 0;
#X connect 15 21 38 0;
#X connect 15 22 39 0;
#X connect 15 23 40 0;
#X connect 15 24 46 0;
#X connect 15 25 45 0;
#X connect 15 26 44 0;
#X connect 15 27 43 0;
#X connect 15 28 42 0;
#X connect 15 29 41 0;
#X connect 15 30 136 0;
#X connect 16 0 17 0;
#X connect 18 0 47 0;
#X connect 19 0 48 0;
#X connect 20 0 49 0;
#X connect 21 0 50 0;
#X connect 22 0 51 0;
#X connect 23 0 52 0;
#X connect 24 0 53 0;
#X connect 25 0 54 0;
#X connect 26 0 55 0;
#X connect 27 0 56 0;
#X connect 28 0 57 0;
#X connect 29 0 58 0;
#X connect 30 0 59 0;
#X connect 31 0 60 0;
#X connect 32 0 61 0;
#X connect 33 0 62 0;
#X connect 34 0 63 0;
#X connect 35 0 64 0;
#X connect 36 0 65 0;
#X connect 37 0 66 0;
#X connect 38 0 67 0;
#X connect 39 0 68 0;
#X connect 40 0 69 0;
#X connect 41 0 70 0;
#X connect 42 0 71 0;
#X connect 43 0 72 0;
#X connect 44 0 73 0;
#X connect 45 0 74 0;
#X connect 46 0 75 0;
#X connect 76 0 77 0;
#X connect 78 0 107 0;
#X connect 79 0 108 0;
#X connect 80 0 109 0;
#X connect 81 0 110 0;
#X connect 82 0 111 0;
#X connect 83 0 112 0;
#X connect 84 0 113 0;
#X connect 85 0 114 0;
#X connect 86 0 115 0;
#X connect 87 0 116 0;
#X connect 88 0 117 0;
#X connect 89 0 118 0;
#X connect 90 0 119 0;
#X connect 91 0 120 0;
#X connect 92 0 121 0;
#X connect 93 0 122 0;
#X connect 94 0 123 0;
#X connect 95 0 124 0;
#X connect 96 0 125 0;
#X connect 97 0 126 0;
#X connect 98 0 127 0;
#X connect 99 0 128 0;
#X connect 100 0 129 0;
#X connect 101 0 130 0;
#X connect 102 0 131 0;
#X connect 103 0 132 0;
#X connect 104 0 133 0;
#X connect 105 0 134 0;
#X connect 106 0 135 0;
#X connect 136 0 82 0;
#X connect 136 1 81 0;
#X connect 136 2 80 0;
#X connect 136 3 79 0;
#X connect 136 4 78 0;
#X connect 136 5 76 0;
#X connect 136 6 83 0;
#X connect 136 7 84 0;
#X connect 136 8 85 0;
#X connect 136 9 86 0;
#X connect 136 10 87 0;
#X connect 136 11 88 0;
#X connect 136 12 94 0;
#X connect 136 13 93 0;
#X connect 136 14 92 0;
#X connect 136 15 91 0;
#X connect 136 16 90 0;
#X connect 136 17 89 0;
#X connect 136 18 95 0;
#X connect 136 19 96 0;
#X connect 136 20 97 0;
#X connect 136 21 98 0;
#X connect 136 22 99 0;
#X connect 136 23 100 0;
#X connect 136 24 106 0;
#X connect 136 25 105 0;
#X connect 136 26 104 0;
#X connect 136 27 103 0;
#X connect 136 28 102 0;
#X connect 136 29 101 0;
