#N canvas 458 435 640 445 10;
#X obj 189 132 list length;
#X obj 169 178 list split;
#X obj 189 153 - 1;
#X obj 152 288 spigot;
#X obj 273 232 spigot;
#X floatatom 326 210 5 0 0 0 - - -;
#X obj 326 163 loadbang;
#X obj 197 219 >;
#X msg 326 184 -100;
#X msg 238 59 list this that and -49;
#X msg 250 85 list but 35that -47;
#X msg 247 31 list but 35that -55;
#X obj 255 206 t f f;
#X obj 411 149 bng 15 250 50 0 empty empty empty 17 7 0 10 -262144
-1 -1;
#X obj 154 369 outlet;
#X obj 137 61 inlet;
#X obj 150 110 t l l l;
#X obj 425 198 list split 1;
#X obj 528 236 list length;
#X obj 527 258 - 1;
#X obj 527 284 list split;
#X msg 555 310 set \$1;
#X msg 555 336 -45;
#X msg 229 257 set \$1;
#X msg 328 282 1c:e6:2b:41:1d:37;
#X obj 360 333 list-compare;
#X floatatom 379 358 5 0 0 0 - - -;
#X obj 410 389 sel 1;
#X msg 426 224 set \$1;
#X msg 444 294 1c:e6:2b:41:1d:37;
#X obj 437 247 t b a;
#X obj 285 260 t b a;
#X msg 1 234 1c:e6:2b:41:1d:37 McDonald's Free Wifi -45;
#X obj 313 374 pipe 50;
#X obj 413 124 r reset;
#X obj 476 270 pipe 200;
#X msg 49 205 set \$1 \$2 \$3;
#X connect 0 0 2 0;
#X connect 1 1 7 0;
#X connect 1 1 12 0;
#X connect 2 0 1 1;
#X connect 3 0 14 0;
#X connect 3 0 23 0;
#X connect 4 0 5 0;
#X connect 5 0 7 1;
#X connect 6 0 8 0;
#X connect 7 0 4 1;
#X connect 7 0 3 1;
#X connect 8 0 5 0;
#X connect 9 0 16 0;
#X connect 10 0 16 0;
#X connect 11 0 16 0;
#X connect 12 0 4 0;
#X connect 12 1 4 0;
#X connect 13 0 8 0;
#X connect 15 0 16 0;
#X connect 15 0 36 0;
#X connect 16 0 3 0;
#X connect 16 1 1 0;
#X connect 16 2 0 0;
#X connect 16 2 17 0;
#X connect 17 0 28 0;
#X connect 17 1 18 0;
#X connect 17 1 20 0;
#X connect 18 0 19 0;
#X connect 19 0 20 1;
#X connect 20 1 21 0;
#X connect 21 0 22 0;
#X connect 22 0 5 0;
#X connect 23 0 31 0;
#X connect 24 0 25 1;
#X connect 25 0 26 0;
#X connect 26 0 27 0;
#X connect 27 0 22 0;
#X connect 27 0 33 0;
#X connect 28 0 30 0;
#X connect 29 0 25 0;
#X connect 30 0 35 0;
#X connect 30 1 29 0;
#X connect 31 0 24 0;
#X connect 31 1 24 0;
#X connect 32 0 14 0;
#X connect 33 0 32 0;
#X connect 34 0 13 0;
#X connect 35 0 29 0;
#X connect 36 0 32 0;
