#N canvas 274 103 668 614 10;
#X declare -lib mrpeach;
#X declare -lib moocow;
#X declare -lib mrpeach;
#X declare -lib moocow;
#X declare -lib mrpeach;
#X declare -lib moocow;
#X declare -lib mrpeach;
#X declare -lib moocow;
#X declare -lib mrpeach;
#X declare -lib moocow;
#X declare -lib mrpeach;
#X declare -lib moocow;
#X declare -lib mrpeach;
#X declare -lib moocow;
#X declare -lib mrpeach;
#X declare -lib moocow;
#X declare -lib mrpeach;
#X declare -lib moocow;
#X declare -lib mrpeach;
#X declare -lib moocow;
#X declare -lib mrpeach;
#X declare -lib moocow;
#X declare -lib mrpeach;
#X declare -lib moocow;
#X declare -lib mrpeach;
#X declare -lib moocow;
#X declare -lib mrpeach;
#X declare -lib moocow;
#X declare -lib mrpeach;
#X declare -lib moocow;
#X declare -lib mrpeach;
#X declare -lib moocow;
#X declare -lib mrpeach;
#X declare -lib moocow;
#X declare -lib mrpeach;
#X declare -lib moocow;
#X declare -lib mrpeach;
#X declare -lib moocow;
#X obj 506 94 loadbang;
#X msg 508 118 1;
#X obj 507 144 dsp;
#X obj 77 76 unpackOSC;
#X obj 487 59 import mrpeach;
#X obj 486 32 import moocow;
#X obj 59 40 udpreceive 9997;
#X obj 71 106 print;
#X obj 131 147 routeOSC /1 /2 /3 /4 /5 /6 /7 /8 /9 /10 /11 /12 /13
/14 /15 /16 /17 /18;
#X obj 140 495 lists;
#X obj 121 523 unpack s s f;
#X symbolatom 76 560 10 0 0 0 - - -;
#X symbolatom 155 555 10 0 0 0 - - -;
#X floatatom 228 555 5 0 0 0 - - -;
#X obj 7 483 list-compare;
#X obj 68 462 s2l;
#X obj 12 459 s2l;
#X floatatom 7 511 5 0 0 0 - - -;
#X obj 8 539 sel 1;
#X obj 7 562 s reset;
#X obj 231 585 s dbm;
#X obj 519 395 bg;
#X obj 455 393 bg;
#X obj 385 393 bg;
#X obj 314 392 bg;
#X obj 250 390 bg;
#X obj 180 390 bg;
#X obj 135 332 bg;
#X obj 205 332 bg;
#X obj 269 334 bg;
#X obj 340 335 bg;
#X obj 410 335 bg;
#X obj 474 337 bg;
#X obj 472 282 bg;
#X obj 408 280 bg;
#X obj 338 280 bg;
#X obj 267 279 bg;
#X obj 203 277 bg;
#X obj 133 277 bg;
#X obj 563 365 inparse;
#X obj 470 365 inparse;
#X obj 375 364 inparse;
#X obj 277 364 inparse;
#X obj 184 364 inparse;
#X obj 89 363 inparse;
#X obj 57 306 inparse;
#X obj 152 307 inparse;
#X obj 245 307 inparse;
#X obj 343 307 inparse;
#X obj 438 308 inparse;
#X obj 531 308 inparse;
#X obj 523 253 inparse;
#X obj 430 253 inparse;
#X obj 335 252 inparse;
#X obj 237 252 inparse;
#X obj 144 252 inparse;
#X obj 59 247 inparse;
#X obj 440 521 speaker;
#X connect 0 0 1 0;
#X connect 0 0 4 0;
#X connect 0 0 5 0;
#X connect 1 0 2 0;
#X connect 3 0 7 0;
#X connect 3 0 8 0;
#X connect 6 0 3 0;
#X connect 8 0 56 0;
#X connect 8 1 55 0;
#X connect 8 2 54 0;
#X connect 8 3 53 0;
#X connect 8 4 52 0;
#X connect 8 5 51 0;
#X connect 8 6 45 0;
#X connect 8 7 46 0;
#X connect 8 8 47 0;
#X connect 8 9 48 0;
#X connect 8 10 49 0;
#X connect 8 11 50 0;
#X connect 8 12 44 0;
#X connect 8 13 43 0;
#X connect 8 14 42 0;
#X connect 8 15 41 0;
#X connect 8 16 40 0;
#X connect 8 17 39 0;
#X connect 9 0 10 0;
#X connect 10 0 11 0;
#X connect 10 1 12 0;
#X connect 10 2 13 0;
#X connect 11 0 15 0;
#X connect 13 0 20 0;
#X connect 14 0 17 0;
#X connect 15 0 14 1;
#X connect 16 0 14 0;
#X connect 17 0 18 0;
#X connect 18 0 19 0;
#X connect 39 0 9 0;
#X connect 39 0 21 0;
#X connect 39 1 16 0;
#X connect 40 0 9 0;
#X connect 40 0 22 0;
#X connect 40 1 16 0;
#X connect 41 0 9 0;
#X connect 41 0 23 0;
#X connect 41 1 16 0;
#X connect 42 0 9 0;
#X connect 42 0 24 0;
#X connect 42 1 16 0;
#X connect 43 0 9 0;
#X connect 43 0 25 0;
#X connect 43 1 16 0;
#X connect 44 0 9 0;
#X connect 44 0 26 0;
#X connect 44 1 16 0;
#X connect 45 0 9 0;
#X connect 45 0 27 0;
#X connect 45 1 16 0;
#X connect 46 0 9 0;
#X connect 46 0 28 0;
#X connect 46 1 16 0;
#X connect 47 0 9 0;
#X connect 47 0 29 0;
#X connect 47 1 16 0;
#X connect 48 0 9 0;
#X connect 48 0 30 0;
#X connect 48 1 16 0;
#X connect 49 0 9 0;
#X connect 49 0 31 0;
#X connect 49 1 16 0;
#X connect 50 0 9 0;
#X connect 50 0 32 0;
#X connect 50 1 16 0;
#X connect 51 0 9 0;
#X connect 51 0 33 0;
#X connect 51 1 16 0;
#X connect 52 0 9 0;
#X connect 52 0 34 0;
#X connect 53 0 9 0;
#X connect 53 0 35 0;
#X connect 53 1 16 0;
#X connect 54 0 9 0;
#X connect 54 0 36 0;
#X connect 54 1 16 0;
#X connect 55 0 9 0;
#X connect 55 0 37 0;
#X connect 55 1 16 0;
#X connect 56 0 9 0;
#X connect 56 0 38 0;
#X connect 56 1 16 0;
