#N canvas 114 167 450 300 10;
#X msg 112 149 open \$1;
#X msg 89 182 1;
#X obj 122 170 t b a;
#X obj 118 204 readsf~;
#X obj 205 32 inlet;
#X obj 94 252 outlet~;
#X obj 136 232 *~ 0.1;
#X obj 182 256 outlet;
#X obj 215 65 moses 96;
#X obj 106 102 maxlib/scale 48 57 1 10;
#X obj 113 127 makefilename /home/pi/ListenerFiles/RL%d.wav;
#X obj 267 104 maxlib/scale 97 102 11 16;
#X connect 0 0 2 0;
#X connect 1 0 3 0;
#X connect 2 0 1 0;
#X connect 2 1 3 0;
#X connect 3 0 6 0;
#X connect 3 1 7 0;
#X connect 4 0 8 0;
#X connect 6 0 5 0;
#X connect 8 0 9 0;
#X connect 8 1 11 0;
#X connect 9 0 10 0;
#X connect 10 0 0 0;
#X connect 11 0 10 0;
