#N canvas 292 221 353 453 10;
#X obj -110 296 spigot;
#X msg -41 265 0;
#X obj -114 263 t b a;
#X msg -40 293 1;
#X obj 2 276 loadbang;
#X obj 143 55 r ssid;
#X obj -116 6 r dbm;
#X floatatom -70 39 5 0 0 0 - - -;
#X msg -116 98 set espeak -ven-us+whisperf -s80 -a\$1;
#X msg -21 238 list "\$1" 2>/dev/null;
#X msg -113 155 espeak -ven-us+whisperf -s80 -a91.6667;
#X obj -31 124 t b b;
#X obj -115 238 l2s;
#X symbolatom 173 85 10 0 0 0 - - -;
#X floatatom -112 31 5 0 0 0 - - -;
#X obj -114 212 list prepend;
#X obj 10 301 t b s;
#X msg 4 326 set \$1;
#X msg -97 349 ". is yeah" 2>/dev/null;
#X obj -94 399 shell;
#X obj -8 415;
#X obj -116 69 maxlib/scale -100 -35 199 200;
#X obj 39 201 sel <no_SSIDs>;
#X connect 0 0 16 0;
#X connect 1 0 0 1;
#X connect 2 0 1 0;
#X connect 2 1 0 0;
#X connect 3 0 0 1;
#X connect 4 0 3 0;
#X connect 5 0 13 0;
#X connect 5 0 22 0;
#X connect 6 0 14 0;
#X connect 6 0 21 0;
#X connect 7 0 21 0;
#X connect 8 0 10 0;
#X connect 8 0 11 0;
#X connect 9 0 15 0;
#X connect 10 0 15 1;
#X connect 11 1 10 0;
#X connect 12 0 2 0;
#X connect 15 0 12 0;
#X connect 16 0 18 0;
#X connect 16 1 17 0;
#X connect 17 0 18 0;
#X connect 18 0 19 0;
#X connect 19 1 3 0;
#X connect 21 0 8 0;
#X connect 22 1 9 0;
