#N canvas 995 100 308 442 10;
#X obj -100 361 shell;
#X obj -99 321 spigot;
#X msg -28 302 0;
#X obj -101 263 t b a;
#X msg -27 330 1;
#X obj 29 330 loadbang;
#X obj 70 28 r ssid;
#X obj -103 6 r dbm;
#X floatatom -57 39 5 0 0 0 - - -;
#X msg -100 155 espeak -ven-us+whisperf -s100 -a45;
#X obj -18 124 t b b;
#X obj -102 238 l2s;
#X symbolatom 116 64 10 0 0 0 - - -;
#X floatatom -99 31 5 0 0 0 - - -;
#X obj -101 212 list prepend;
#X obj -44 379 print;
#X msg -103 98 set espeak -ven-us+whisperf -s100 -a\$1;
#X msg -8 222 list "\$1" 2>/dev/null;
#X obj -103 69 maxlib/scale -95 -35 1 200;
#X connect 0 1 4 0;
#X connect 1 0 0 0;
#X connect 1 0 15 0;
#X connect 2 0 1 1;
#X connect 3 0 2 0;
#X connect 3 1 1 0;
#X connect 4 0 1 1;
#X connect 5 0 4 0;
#X connect 6 0 12 0;
#X connect 6 0 17 0;
#X connect 7 0 13 0;
#X connect 7 0 18 0;
#X connect 8 0 18 0;
#X connect 9 0 14 1;
#X connect 10 1 9 0;
#X connect 11 0 3 0;
#X connect 14 0 11 0;
#X connect 16 0 9 0;
#X connect 16 0 10 0;
#X connect 17 0 14 0;
#X connect 18 0 16 0;
