#N canvas 0 22 456 331 10;
#X obj 169 118 timer;
#X floatatom 168 149 5 0 0 0 - - -;
#X obj 152 62 bng 15 250 50 0 empty empty empty 17 7 0 10 -262144 -1
-1;
#X obj 181 230 bng 15 250 50 0 empty empty empty 17 7 0 10 -262144
-1 -1;
#X obj 208 82 metro 1000;
#X obj 121 24 inlet;
#X obj 181 253 outlet;
#X obj 178 191 sel 5000;
#X connect 0 0 1 0;
#X connect 1 0 7 0;
#X connect 2 0 0 0;
#X connect 2 0 4 0;
#X connect 3 0 6 0;
#X connect 4 0 0 1;
#X connect 5 0 2 0;
#X connect 7 0 3 0;
