#N canvas 347 65 523 450 10;
#X declare -lib mrpeach;
#X declare -lib moocow;
#X obj 70 55 import mrpeach;
#X obj 70 28 loadbang;
#X obj 320 18 inlet;
#X obj 138 327 *~ 4;
#X floatatom 204 371 5 0 0 0 - - -;
#X obj 324 39 unpack s s f;
#X msg 228 312 \$1 50;
#X obj 75 99 iter;
#X obj 77 122 sel 58;
#X obj 321 89 str to_list;
#X obj 166 140 zl group 12;
#X obj 74 173 unpack f f f f f f f f f f f f;
#X obj 123 452 dac~ 1 2;
#X obj 349 73 s ssid;
#X obj 260 66 sel none;
#X obj 275 90 bng 15 250 50 0 empty empty empty 17 7 0 10 -262144 -1
-1;
#X obj 165 43 import moocow;
#X obj 14 226 mfn;
#X obj 43 223 mfn;
#X obj 71 228 mfn;
#X obj 100 225 mfn;
#X obj 125 227 mfn;
#X obj 181 225 mfn;
#X obj 209 230 mfn;
#X obj 238 227 mfn;
#X obj 152 228 mfn;
#X obj 263 229 mfn;
#X obj 292 228 mfn;
#X obj 317 230 mfn;
#X obj 211 335 line 0 10;
#X obj 263 154 maxlib/scale -55 -34 0.01 1.9;
#X connect 1 0 0 0;
#X connect 1 0 16 0;
#X connect 2 0 5 0;
#X connect 3 0 12 0;
#X connect 3 0 12 1;
#X connect 4 0 3 1;
#X connect 5 0 14 0;
#X connect 5 1 13 0;
#X connect 5 2 30 0;
#X connect 6 0 29 0;
#X connect 7 0 8 0;
#X connect 8 1 10 0;
#X connect 9 0 7 0;
#X connect 10 0 11 0;
#X connect 11 0 17 0;
#X connect 11 1 18 0;
#X connect 11 2 19 0;
#X connect 11 3 20 0;
#X connect 11 4 21 0;
#X connect 11 5 25 0;
#X connect 11 6 22 0;
#X connect 11 7 23 0;
#X connect 11 8 24 0;
#X connect 11 9 26 0;
#X connect 11 10 27 0;
#X connect 11 11 28 0;
#X connect 14 0 15 0;
#X connect 14 1 9 0;
#X connect 17 0 3 0;
#X connect 18 0 3 0;
#X connect 19 0 3 0;
#X connect 20 0 3 0;
#X connect 21 0 3 0;
#X connect 22 0 3 0;
#X connect 23 0 3 0;
#X connect 24 0 3 0;
#X connect 25 0 3 0;
#X connect 26 0 3 0;
#X connect 27 0 3 0;
#X connect 28 0 3 0;
#X connect 29 0 4 0;
#X connect 30 0 6 0;
